<?xml version="1.0" encoding="utf-8" ?>
<svg xmlns="http://www.w3.org/2000/svg" xmlns:xlink="http://www.w3.org/1999/xlink" width="1024" height="1024">
	<path fill="#FEFEFE" d="M0 0L1024 0L1024 1024L0 1024L0 0Z"/>
	<path d="M500.494 50.7156C514.055 50.2907 527.386 50.5165 540.914 51.4969C649.179 59.343 748.074 115.579 818.34 197.023C888.453 278.289 929.541 391.257 930.045 498.429Q930.231 518.072 927.822 537.567C926.418 549.175 924.34 560.71 923.508 572.382C921.882 595.208 923.62 623.193 937.413 642.343C941.677 648.264 947.323 652.89 952.051 658.403C960.884 668.705 964.069 681.662 962.921 695.016C961.768 708.435 958.962 721.912 956.89 735.221L946.345 804.485Q943.578 822.196 941.149 839.957C939.989 848.186 939.247 856.846 936.771 864.803C934.347 872.596 930.369 879.317 924.016 884.523C920.805 887.154 916.91 889.617 912.773 890.341C906.111 891.505 887.796 887.87 879.858 886.886Q866.141 885.27 852.401 883.862C835.672 904.092 825.353 925.657 805.551 944.087C785.258 962.974 767.757 966.924 740.701 965.986C738.213 969.879 735.346 973.515 731.932 976.639C724.621 983.327 715.428 987.625 705.38 987.032C695.864 986.471 687.284 981.893 681.071 974.725C673.466 965.95 669.541 954.013 668.798 942.556C667.833 927.681 672.414 905.699 674.605 890.231L691.773 774.353C693.698 760.565 696.714 746.722 697.701 732.846C691.154 733.107 681.839 734.515 675.651 732.427C673.983 731.08 673.03 728.738 672.266 726.768C669.057 718.488 667.033 709.391 664.543 700.854C661.762 691.318 658.512 681.889 655.933 672.301C652.002 689.125 649.488 706.402 646.059 723.349Q637.842 763.075 627.556 802.316C624.796 812.938 622.533 825.251 618.85 835.45C617.941 837.966 616.281 841.489 613.525 842.434C612.277 842.861 611.048 842.469 609.924 841.906C608.34 841.113 607.256 839.345 606.634 837.753C604.178 831.471 603.034 815.649 601.78 808.014L589.31 732.791C584.413 701.572 579.967 670.336 571.976 639.709Q570.187 667.965 567.938 696.188C567.061 708.76 566.852 721.783 565.087 734.232C564.564 737.919 563.767 741.727 561.974 745.022C560.565 747.612 558.357 750.301 555.364 751.044C553.745 751.446 552.091 751.113 550.691 750.226C542.398 744.968 535.491 705.028 532.777 693.513C528.485 736.217 526.156 779.138 522.127 821.88C521.072 834.081 517.361 888.821 512.864 896.235C511.947 897.748 510.274 899.263 508.462 899.534C506.899 899.768 505.482 899.438 504.24 898.465C502.901 897.415 502.064 895.962 501.529 894.368C499.302 887.729 498.815 879.816 497.866 872.858Q494.697 849.73 492.24 826.516C488.554 793.137 484.779 759.86 481.944 726.388C478.859 689.945 476.744 653.425 473.471 616.996C468.343 650.466 464.988 684.302 460.95 717.924C460.108 724.935 458.468 747.301 456.456 752.15C455.779 753.783 454.03 755.106 452.369 755.627C450.48 756.219 448.46 755.977 446.731 755.021Q446.222 754.745 445.764 754.391Q445.306 754.036 444.911 753.614Q444.515 753.191 444.192 752.711Q443.869 752.231 443.627 751.705C441.149 746.301 440.096 739.35 438.616 733.528L429.916 699.456C426.39 713.946 424.183 728.887 421.241 743.515C420.614 746.633 420.143 750.877 417.18 752.672C415.66 753.593 413.668 753.88 411.978 753.275C410.219 752.645 409.475 751.518 408.755 749.924C405.176 741.99 403.142 732.591 400.532 724.253C395.078 706.831 389.289 689.099 381.912 672.387C380.09 690.856 376.665 709.337 373.927 727.706C370.941 747.737 368.53 767.888 365.419 787.889C365.188 789.37 364.97 791.644 364.08 792.842C361.838 795.861 340.492 796.274 336.405 796.515C337.285 809.908 339.914 823.505 341.812 836.808L350.379 899.492C352.56 915.458 356.611 933.441 354.127 949.47C352.319 961.136 346.65 973.795 336.886 980.895C329.517 986.255 319.156 988.505 310.198 986.895C297.606 984.632 287.829 973.91 280.843 963.93C270.643 966.133 261.614 967.032 251.455 964.055C241 960.992 231.016 955.434 222.654 948.481C206.069 934.691 184.014 901.955 173.661 882.85L139.476 887.679C132.671 888.639 125.747 889.887 118.882 890.271C110.941 890.715 105.076 887.818 99.3427 882.584Q98.2969 881.625 97.3154 880.6Q96.3339 879.575 95.4209 878.489Q94.5078 877.403 93.6671 876.259Q92.8264 875.116 92.0616 873.921Q91.2967 872.726 90.6109 871.483Q89.9251 870.241 89.3213 868.957Q88.7174 867.673 88.1981 866.352Q87.6787 865.031 87.246 863.68C84.1054 853.805 82.7319 842.833 81.1894 832.609L74.0779 782.448L64.7309 718.658C63.4873 709.761 61.4218 700.588 61.0605 691.63C60.5923 680.022 65.275 667.061 72.5495 658.087C75.554 654.381 79.1946 651.206 82.3852 647.66C100.493 627.537 102.258 595.441 99.8636 569.722C98.223 552.103 94.591 534.975 93.7192 517.218C92.7612 497.706 93.8452 478.004 95.7868 458.585C105.376 362.683 145.44 262.972 210.598 191.167Q217.781 183.149 225.318 175.463Q232.855 167.778 240.732 160.44Q248.608 153.102 256.808 146.128Q265.008 139.153 273.514 132.556C281.777 126.232 290.525 120.663 299.271 115.042C307.392 109.822 315.483 104.449 323.898 99.7174C356.251 81.5253 393.171 66.8732 429.495 59.0334C453.121 53.9341 476.413 51.8712 500.494 50.7156Z"/>
	<path fill="#FEFEFE" d="M508.855 107.734C520.835 107.303 533.218 108.157 545.142 109.331Q550.641 109.867 556.118 110.59Q561.596 111.313 567.046 112.221Q572.495 113.129 577.911 114.222Q583.327 115.314 588.703 116.59Q594.078 117.866 599.407 119.324Q604.736 120.782 610.013 122.419Q615.29 124.057 620.508 125.873Q625.726 127.689 630.879 129.681Q636.032 131.673 641.115 133.839Q646.198 136.005 651.204 138.342Q656.21 140.68 661.134 143.186Q666.058 145.691 670.894 148.363Q675.73 151.035 680.473 153.869Q685.215 156.703 689.859 159.697Q694.503 162.69 699.042 165.84Q703.581 168.989 708.011 172.291C713.745 176.523 719.691 180.679 725.071 185.358L724.997 185.586C718.675 182.039 712.663 177.476 706.619 173.446Q696.335 166.619 685.417 160.858C620.949 126.348 558.416 116.318 485.943 121.208Q480.409 121.651 474.89 122.256Q469.372 122.861 463.873 123.628Q458.375 124.395 452.901 125.323Q447.427 126.252 441.983 127.341Q436.539 128.429 431.13 129.678Q425.72 130.926 420.35 132.333Q414.979 133.74 409.652 135.304Q404.326 136.868 399.047 138.588Q393.768 140.308 388.543 142.183Q383.317 144.057 378.148 146.085Q372.98 148.112 367.873 150.29Q362.767 152.468 357.727 154.796Q352.686 157.123 347.716 159.598Q342.747 162.072 337.852 164.692Q332.957 167.312 328.141 170.074Q323.325 172.836 318.593 175.739C305.261 183.769 293.005 193.201 279.908 201.502C286.407 194.754 293.73 188.66 301.018 182.79Q304.815 179.77 308.694 176.857Q312.573 173.943 316.531 171.139Q320.489 168.334 324.524 165.64Q328.558 162.946 332.666 160.365Q336.774 157.784 340.951 155.318Q345.129 152.852 349.373 150.502Q353.618 148.153 357.926 145.922Q362.234 143.691 366.602 141.581Q370.97 139.47 375.395 137.481Q379.82 135.493 384.298 133.627Q388.776 131.762 393.305 130.022Q397.833 128.282 402.408 126.667Q406.983 125.053 411.601 123.567Q416.219 122.08 420.876 120.722Q425.533 119.364 430.226 118.135Q434.92 116.907 439.645 115.809C462.612 110.688 485.379 108.575 508.855 107.734Z"/>
	<path fill="#FEFEFE" d="M507.929 128.282C522.605 127.377 537.829 127.935 552.46 129.202Q555.396 129.446 558.326 129.743Q561.257 130.041 564.182 130.391Q567.107 130.741 570.025 131.145Q572.943 131.548 575.853 132.004Q578.763 132.46 581.664 132.969Q584.566 133.478 587.458 134.039Q590.349 134.6 593.231 135.214Q596.112 135.827 598.981 136.493Q601.851 137.159 604.708 137.876Q607.565 138.594 610.408 139.363Q613.252 140.132 616.081 140.953Q618.91 141.774 621.724 142.646Q624.537 143.517 627.335 144.44Q630.132 145.363 632.913 146.336Q635.693 147.309 638.455 148.333Q641.217 149.356 643.961 150.43Q646.704 151.503 649.427 152.626Q652.15 153.749 654.853 154.921Q657.555 156.093 660.236 157.314Q662.917 158.535 665.575 159.804Q668.233 161.073 670.868 162.39Q673.503 163.708 676.114 165.072Q678.724 166.437 681.309 167.849Q683.895 169.261 686.454 170.719Q689.013 172.178 691.546 173.682Q694.078 175.187 696.583 176.737Q699.088 178.287 701.564 179.883Q704.041 181.478 706.487 183.118Q708.934 184.758 711.351 186.442Q713.768 188.127 716.154 189.854Q718.54 191.582 720.894 193.352Q723.248 195.123 725.57 196.936C738.416 206.891 751.202 217.748 761.675 230.227C757.385 227.079 753.39 223.404 749.221 220.081Q739.009 212.009 728.348 204.54C703.953 187.379 674.146 171.35 645.938 161.632C628.314 155.561 609.946 151.297 591.702 147.619C530.598 136.377 465.846 137.658 405.74 154.037C389.281 158.522 372.895 164.549 357.034 170.797C340.735 177.219 325.426 185.848 309.295 192.695C362.855 150.951 441.159 130.709 507.929 128.282Z"/>
	<path fill="#FEFEFE" d="M885.812 664.746C888.071 664.83 890.385 664.858 892.626 665.157C895.996 665.608 900.975 666.64 903.006 669.719C904.202 671.532 903.871 673.079 903.693 675.117C903.097 681.923 901.424 688.724 900.543 695.52C897.137 721.797 893.24 747.877 889.245 774.067C883.938 808.862 880.011 843.904 873.848 878.568C867.363 877.547 860.864 876.554 854.293 876.384C855.361 865.714 857.264 855.064 858.849 844.46L867.903 784.828C873.911 744.805 878.971 704.648 885.812 664.746Z"/>
	<path fill="#FEFEFE" d="M129.705 665.11C131.777 664.906 134.475 664.381 136.158 665.934C137.081 666.785 137.696 668.044 137.987 669.252C139.04 673.628 139.105 678.553 139.813 683.042L146.191 722.072Q158.802 798.382 170.24 874.877Q164.122 875.78 157.994 876.618L149.707 877.718C149.254 872.379 148.153 866.986 147.339 861.683L142.861 832.538L126.766 726.565C124.355 710.537 120.595 692.106 119.225 676.201C119.097 674.715 118.865 672.585 119.607 671.219C121.521 667.695 126.196 666.428 129.705 665.11Z"/>
	<path fill="#FEFEFE" d="M238.718 543.375C240.652 545.84 242.865 572.181 243.576 577.54L263.967 737.44Q271.672 803.675 280.917 869.713C285.051 899.262 289.529 948.857 302.257 974.577C300.802 973.542 299.411 972.407 298.006 971.305C295.184 968.564 290.129 964.392 289.042 960.537C287.832 956.243 288.369 950.997 287.566 946.482C284.899 931.473 281.793 916.475 278.868 901.511Q271.505 864.797 264.604 827.994Q247.591 732.652 237.761 636.305C236.291 621.47 234.48 606.675 233.142 591.825C232.403 583.63 231.463 575.255 231.754 567.022C232.058 558.43 234.386 550.77 238.718 543.375Z"/>
	<path fill="#FEFEFE" d="M784.656 543.3C788.146 546.445 790.703 554.292 791.296 558.83C792.357 566.957 791.559 576.169 791.159 584.347C790.265 602.593 788.654 620.654 786.702 638.812Q777.026 728.325 762.619 817.2L750.744 889.107C747.149 910.041 743.669 932.003 737.318 952.284C735.561 957.895 733.326 962.361 729.762 967.03C728.314 968.472 726.774 969.842 725.282 971.241C730.552 961.193 734.091 927.114 736.131 914.257Q749.856 823.793 761.132 732.991Q773.739 638.25 784.656 543.3Z"/>
	<path fill="#FEFEFE" d="M189.879 579.922C190.779 581.077 190.537 583.084 190.498 584.548C190.208 595.639 189.102 606.817 188.48 617.905Q186.941 645.709 186.54 673.553C186.163 701.529 185.982 729.772 189.307 757.589C197.178 823.44 220.781 885.607 237.862 949.313C229.408 944.588 222.839 937.899 216.554 930.657C205.32 917.06 195.52 903.352 186.538 888.162C184.013 883.89 181.025 879.404 179.228 874.78C176.282 867.2 175.955 857.204 174.78 849.087C173.562 840.673 172.106 832.3 170.827 823.895L156.754 735.609Q153.219 710.519 148.699 685.588C147.651 679.6 147.081 673.434 145.675 667.529L145.56 667.063C148.509 663.23 151.432 659.438 153.601 655.095C162.444 637.391 162.68 616.077 173.218 599.035C177.753 591.7 183.742 585.886 189.879 579.922Z"/>
	<path fill="#FEFEFE" d="M830.244 578.19C845.526 586.9 855.553 609.154 860.471 625.242C864.864 639.612 865.954 653.04 876.707 664.445L852.149 831.445Q849.96 846.086 847.597 860.699C846.68 866.58 845.005 873.333 845.463 879.256C837.707 888.333 831.486 898.389 824.68 908.155Q816.487 919.851 807.131 930.64C800.532 938.031 793.263 944.421 784.716 949.453C821.035 848.892 840.495 753.225 836.197 645.868Q835.395 625.745 833.381 605.707C832.424 596.525 831.078 587.385 830.244 578.19Z"/>
	<path fill="#FEFEFE" d="M881.952 318.487C883.949 318.835 891.138 338.93 892.267 341.833C913.896 397.456 925.377 466.781 920.677 526.291C918.169 558.052 910.758 581.39 917.325 614.121C920 627.45 925.167 642.931 934.536 653.146C939.17 658.197 944.555 662.675 948.501 668.319Q949.26 669.412 949.936 670.558Q950.611 671.704 951.2 672.897Q951.789 674.09 952.288 675.323Q952.787 676.556 953.193 677.823Q953.599 679.09 953.911 680.384Q954.222 681.677 954.436 682.99Q954.651 684.303 954.767 685.628Q954.884 686.954 954.902 688.284C955.086 697.714 952.63 707.462 951.241 716.781Q947.425 743.355 943.21 769.868Q938.783 797.698 934.92 825.611C933.437 835.991 932.239 846.539 930.311 856.838C928.429 866.895 923.571 875.008 915.072 880.847C916.506 873.306 917.473 865.672 918.544 858.073C918.966 848.65 921.283 838.673 922.718 829.306L936.717 737.318C938.808 723.301 941.93 708.358 943.004 694.345C943.212 691.635 943.345 687.94 942.214 685.44C936.543 672.905 909.436 661.866 896.985 656.617C895.71 650.116 892.422 644.422 889.673 638.459C883.738 625.586 879.567 613.349 878.1 599.138C876.813 586.666 876.588 573.474 878.001 561.01C879.493 547.859 882.202 534.956 883.028 521.711C887.029 457.521 870.937 384.638 844.149 326.442C857.387 325.063 869.481 323.463 881.952 318.487Z"/>
	<path fill="#FEFEFE" d="M145.771 306.589Q163.602 314.264 181.699 321.29C175.836 331.615 171.932 343.896 168.012 355.101C149.595 407.746 138.929 464.834 142.076 520.757C143.538 546.743 150.181 572.253 146.676 598.381C143.856 619.398 134.524 637.339 127.008 656.799C118.094 659.933 89.0713 673.904 83.9952 680.777C82.0355 683.431 80.622 686.949 80.6679 690.275C80.7567 696.711 82.1905 703.468 83.1561 709.835L88.1293 742.802L104.366 857.458C105.575 864.761 106.401 872.163 107.388 879.501C102.867 875.176 98.4133 870.866 96.1051 864.905C92.774 856.303 91.8616 846.111 90.3036 837.008C85.9503 811.572 82.7921 785.808 79.148 760.247L72.9181 718.568C71.749 710.739 70.2541 702.773 69.7134 694.876C69.3104 688.99 69.7131 683.268 71.6562 677.68C75.697 666.06 82.6087 660.922 90.4666 652.079C101.597 639.554 106.992 618.758 108.475 602.477Q109.407 592.654 109.275 582.789Q109.142 572.923 107.947 563.129C106.208 549.061 103.327 535.378 102.494 521.178C98.3089 449.849 115.766 371.239 145.771 306.589Z"/>
	<path fill="#FEFEFE" d="M478.194 465.884C478.925 466.628 478.869 467.034 479.017 468.031C479.889 473.917 480.167 480.025 480.689 485.957L484.177 527.563Q490.536 600.323 495.88 673.165C497.29 695.42 498.139 717.712 499.78 739.951C500.395 748.286 500.425 757.288 501.993 765.493C502.422 767.735 503.35 770.182 505.39 771.437C506.785 772.295 507.874 772.126 509.373 771.716C510.242 770.96 510.669 770.391 511.016 769.276C513.73 760.537 514.186 750.018 515.429 740.88C516.892 730.121 518.521 719.364 519.714 708.572C521.598 691.518 522.983 674.418 525.24 657.405C526.378 648.827 528.097 640.501 530.018 632.066C532.783 637.079 534.715 642.757 536.514 648.181C538.38 653.807 541.806 669.59 545.198 673.219C545.926 673.998 546.56 674.117 547.592 674.175C548.943 674.25 550.036 673.745 551.005 672.855C552.532 671.454 552.665 668.854 552.92 666.875C554.075 657.891 554.513 648.684 555.195 639.645Q557.483 608.721 559.093 577.755C560.277 557.191 562.528 536.712 563.734 516.163C571.795 545.809 577.659 575.937 583.906 605.999C589.459 632.725 595.496 659.25 600.178 686.164Q603.672 707.296 606.412 728.539C607.4 736.481 608.211 755.187 610.964 761.764C611.478 762.993 612.231 764.277 613.604 764.629C614.915 764.966 616.965 764.553 618.078 763.803C619.232 763.026 619.878 761.681 620.231 760.375C621.99 753.886 622.768 746.739 624.008 740.103C626.22 728.264 628.704 716.457 631.024 704.636L651.966 602.95C655.138 611.342 657.039 620.405 659.677 629.004Q668.918 658.268 677.811 687.639C680.147 695.194 682.293 706.591 686.563 713.078C689.904 715.057 696.374 713.937 700.233 713.751L698.813 724.804C692.69 725.063 686.52 725.011 680.39 725.098C676.659 713.335 662.134 658.14 657.435 652.013C655.853 651.397 654.359 651.16 652.779 652.01C651.342 652.783 650.919 653.824 650.53 655.315C648.171 664.351 646.851 674.015 645.242 683.222Q641.475 705.754 636.714 728.096C629.671 760.749 620.007 792.848 612.907 825.469C610.224 811.198 608.468 796.698 606.233 782.348Q598.776 732.515 590.262 682.851C586.828 662.893 583.513 642.742 578.237 623.177C577.282 619.637 576.418 614.476 574.492 611.473C573.83 610.442 572.393 609.679 571.226 609.43C570.026 609.174 568.3 609.319 567.374 610.238C563.799 613.786 560.767 679.392 560.098 688.549C559.266 703.968 558.435 727.144 554.178 741.515C550.035 730.324 540.125 678.688 537.655 675.251C536.933 674.247 535.266 673.641 534.08 673.523Q533.765 673.495 533.449 673.496Q533.133 673.498 532.818 673.53Q532.504 673.562 532.194 673.624Q531.884 673.686 531.581 673.777Q531.278 673.868 530.986 673.988Q530.693 674.108 530.413 674.255Q530.134 674.402 529.869 674.575Q529.605 674.748 529.358 674.946C526.057 677.619 525.082 687.382 524.51 691.422C521.862 710.12 521.234 729.172 519.754 747.993L515.765 793.98C513.5 822.369 511.423 850.892 507.606 879.123Q496.987 801.176 490.218 722.8C486.473 680.447 483.904 637.908 481.028 595.484C480.293 584.638 480.173 573.671 479.249 562.855C479.092 561.017 478.705 558.388 477.637 556.835C477.159 556.139 476.826 555.677 475.995 555.498C474.826 555.247 473.665 555.425 472.679 556.139C471.09 557.291 470.64 559.656 470.307 561.466C465.64 586.76 464.013 613.066 461.255 638.637L449.612 741.184Q445.373 723.358 440.541 705.684C439.035 700.12 437.827 693.911 435.472 688.653C434.247 685.918 432.944 683.185 429.994 682.079C429.127 682.138 428.4 682.164 427.649 682.669C425.553 684.078 424.27 686.873 423.422 689.151C421.398 694.587 420.492 700.892 419.354 706.57C417.349 716.571 415.31 726.659 414.101 736.793C406.38 715.181 400.034 693.246 391.626 671.842C389.252 665.799 387.146 659.025 383.821 653.468C383.019 652.129 382.018 650.453 380.303 650.265C379.111 650.135 378.079 650.268 377.184 651.129C376.088 652.183 375.537 654.033 375.248 655.476C374.27 660.371 373.927 665.562 373.319 670.527Q371.565 685.149 369.627 699.747L357.552 786.391C350.134 786.8 342.754 788.216 335.31 788.666Q334.649 783.129 334.178 777.572C338.349 777.35 345.083 777.478 348.627 775.185C351.174 773.538 351.199 767.214 351.51 764.424C353.608 745.623 356.865 726.955 359.816 708.271Q367.25 658.431 377.447 609.082C384.821 625.085 391.218 642.165 397.242 658.726C400.044 666.43 402.202 675.571 406.107 682.706C406.785 683.944 407.593 684.699 408.987 685.025C410.91 685.476 413.222 685.177 414.782 683.894C416.791 682.242 423.192 646.019 423.926 640.978C427.488 648.98 432.29 669.976 438.403 674.866C439.567 675.144 440.21 675.294 441.364 674.696C443.375 673.654 444.413 670.997 444.999 668.965C446.752 662.883 447.375 656.003 448.557 649.755C451.983 631.636 455.081 613.67 457.783 595.43L469.273 521.789C472.174 503.131 474.728 484.453 478.194 465.884Z"/>
	<path fill="#FEFEFE" d="M505.611 59.274C551.806 56.937 600.718 67.3228 643.997 82.9711C673.527 93.6481 701.826 109.253 727.642 127.022C795.426 173.676 842.796 231.479 877.576 305.924Q867.943 308.46 858.129 310.161Q848.315 311.861 838.391 312.715C833.501 304.851 829.717 296.15 824.982 288.137Q815.368 271.817 804.277 256.463Q793.186 241.11 780.713 226.855C734.086 173.985 673.735 131.177 605.375 111.892C580.421 104.852 555.411 101.177 529.584 99.5301C493.653 98.4901 458.722 101.481 423.863 110.722C342.223 132.365 268.934 188.129 219.865 256C208.104 272.268 198.555 289.587 188.504 306.914C175.988 303.528 163.984 298.37 151.353 295.048C168.106 256.415 200.468 214.066 229.42 183.596Q232.734 180.042 236.136 176.572Q239.538 173.101 243.024 169.716Q246.511 166.331 250.081 163.034Q253.651 159.736 257.301 156.528Q260.952 153.321 264.681 150.205Q268.41 147.088 272.215 144.066Q276.02 141.043 279.899 138.116Q283.778 135.189 287.729 132.359Q291.679 129.529 295.699 126.798Q299.719 124.067 303.805 121.437Q307.891 118.806 312.041 116.278Q316.192 113.75 320.403 111.326Q324.615 108.901 328.886 106.583Q333.156 104.264 337.483 102.051Q341.81 99.8391 346.191 97.735Q350.571 95.6309 355.002 93.6362Q359.434 91.6415 363.913 89.7575Q368.393 87.8734 372.918 86.1012Q377.443 84.3289 382.01 82.6696Q386.578 81.0102 391.185 79.4648Q395.792 77.9193 400.437 76.4887Q405.081 75.0581 409.759 73.7433Q414.438 72.4285 419.147 71.2302Q423.857 70.0319 428.595 68.951Q433.332 67.87 438.096 66.907Q442.859 65.944 447.645 65.0995Q452.43 64.2551 457.235 63.5297Q462.041 62.8044 466.862 62.1985Q471.684 61.5927 476.519 61.1068Q481.354 60.6208 486.2 60.2551Q491.046 59.8893 495.9 59.644Q500.753 59.3987 505.611 59.274Z"/>
	<path fill="#FEFEFE" d="M502.935 160.722Q511.271 160.396 519.613 160.498Q527.954 160.599 536.28 161.128Q544.605 161.656 552.893 162.61Q561.18 163.565 569.408 164.942Q572.947 165.533 576.472 166.2Q579.998 166.867 583.508 167.61Q587.018 168.353 590.511 169.172Q594.005 169.991 597.479 170.886Q600.954 171.78 604.409 172.749Q607.863 173.719 611.296 174.762Q614.729 175.806 618.138 176.924Q621.548 178.042 624.932 179.234Q628.316 180.425 631.674 181.689Q635.032 182.954 638.362 184.29Q641.691 185.627 644.991 187.036Q648.291 188.444 651.56 189.924Q654.829 191.403 658.065 192.953Q661.301 194.503 664.502 196.123Q667.704 197.742 670.87 199.431Q674.036 201.119 677.164 202.876Q680.293 204.632 683.383 206.456Q686.472 208.28 689.522 210.17Q692.572 212.061 695.58 214.016Q698.588 215.972 701.553 217.993Q704.518 220.013 707.438 222.097Q710.359 224.181 713.234 226.328Q716.109 228.475 718.936 230.684Q721.764 232.892 724.543 235.162Q727.323 237.431 730.052 239.76Q732.782 242.088 735.46 244.476Q738.139 246.863 740.765 249.308Q743.391 251.753 745.964 254.254Q748.536 256.755 751.054 259.311Q753.572 261.867 756.034 264.477Q758.496 267.087 760.901 269.749Q763.306 272.412 765.653 275.126C772.703 283.282 779.727 291.74 785.932 300.567C791.663 308.719 796.768 317.294 802.59 325.388C813.227 327.073 824.422 326.917 835.159 326.987C862.587 383.749 878.912 460.29 874.261 523.154C872.234 550.558 865.738 576.351 870.049 604.021C871.869 615.701 875.072 627.509 879.847 638.33C882.408 644.134 885.658 649.653 887.847 655.615L888.103 656.327C885.567 656.377 883.149 656.541 880.63 656.868C874.972 646.519 872.78 637.35 869.486 626.186C865.106 611.339 858.982 596.227 849.374 583.957C836.624 567.676 819.936 561.089 799.9 558.632C798.72 552.544 797.041 547.308 793.669 542.044C787.348 532.175 777.712 524.315 766.083 521.886C757.63 520.119 749.354 521.805 742.169 526.523C733.41 532.275 727.515 540.976 723.977 550.719C719.644 562.65 718.709 580.342 717.008 593.117L706.459 671.064C704.82 682.588 703.769 694.397 701.368 705.78C698.305 705.864 695.234 705.863 692.17 705.904C689.323 697.739 687.152 689.252 684.57 680.991C678.9 662.853 673.084 644.719 667.665 626.506C664.146 614.679 661.064 602.439 656.848 590.851C656.013 588.556 655.012 585.246 652.563 584.301C651.299 583.814 650.176 584.003 648.967 584.523C647.466 586.011 647.026 587.423 646.478 589.435C644.326 597.336 642.945 605.53 641.285 613.551L632.597 655.552L625.223 691.688C622.294 705.392 619.104 719.089 616.997 732.95C615.12 718.45 611.924 703.904 609.358 689.495C603.687 657.641 596.813 626.113 589.971 594.499L577.789 537.357L570.398 503.801C569.27 498.691 568.56 492.245 566.417 487.558C565.772 486.149 564.917 485.118 563.372 484.676C562.163 484.331 560.895 484.434 559.86 485.202C558.228 486.415 557.553 489.033 557.208 490.913C556.218 496.298 556.32 502.119 555.889 507.582C555.03 518.447 554.04 529.281 553.327 540.16L549.954 588.242C548.684 607.925 547.616 627.592 545.602 647.221Q543.185 640.253 540.367 633.436C538.817 629.716 535.662 621.132 531.367 619.932C529.602 619.439 527.831 620.303 526.463 621.354C516.423 629.074 513.618 682.351 512.244 696.488C511.136 707.89 509.774 719.278 508.499 730.663Q506.507 710.805 505.418 690.877C504.067 673.295 503.198 655.686 501.903 638.102L491.248 507.267L487.335 463.192C486.68 455.497 486.685 447.122 485.068 439.62C484.418 436.602 483.434 433.925 480.754 432.216C479.414 432.105 479.01 432.051 477.811 432.789C475.514 434.204 474.275 437.811 473.691 440.272C472.052 447.172 471.094 454.389 469.867 461.388C466.199 482.305 463.345 503.361 460.049 524.341L438.633 655.4Q435.056 645.616 431.849 635.705C430.427 631.414 429.236 626.864 427.193 622.826C426.44 621.339 425.713 620.384 423.986 620.007C422.742 619.736 421.138 620.006 420.085 620.771C419.131 621.464 418.698 622.271 418.351 623.363C416.703 628.541 416.281 634.607 415.298 639.989C413.632 649.104 411.595 658.209 409.518 667.238C404.263 655.71 385.706 599.022 378.607 595.661C377.184 594.988 375.264 595.072 373.944 595.897C372.356 596.891 371.43 598.808 370.803 600.504C369.461 604.132 369.121 608.194 368.284 611.97C365.759 623.356 363.373 634.627 361.439 646.134Q354.541 686.656 348.208 727.27Q346.355 739.103 344.738 750.971C343.999 756.549 343.526 762.238 342.356 767.739L342.205 768.43C338.835 768.969 335.411 768.986 332.005 769.099L312.497 623.646C310.525 609.144 308.934 594.594 306.917 580.099C305.964 573.25 305.192 566.264 303.631 559.528Q303.042 556.933 302.221 554.402Q301.4 551.87 300.353 549.423Q299.307 546.976 298.045 544.634Q296.782 542.291 295.313 540.072C289.391 531.175 280.936 524.034 270.23 521.993C260.913 520.217 251.584 522.518 243.809 527.838C232.274 535.73 226.135 546.953 223.67 560.492C219.593 560.125 215.559 559.97 211.49 560.509C200.091 562.021 190.697 567.525 182.311 575.152C169.565 586.742 160.94 600.628 156.308 617.212C153.926 625.739 152.145 634.398 149.271 642.788C147.813 647.044 146.471 652.076 143.733 655.66C142.402 656.411 141.215 656.727 139.665 656.568C138.435 656.443 137.727 656.259 136.88 655.323C137.924 650.228 141.181 644.997 143.228 640.165C148.857 626.871 153.448 613.167 155.232 598.775C158.612 571.511 152.109 545.004 150.837 517.843C148.686 471.953 155.782 418.858 170.047 375.231C173.743 363.927 177.66 352.422 182.124 341.399C185.025 334.236 188.402 327.29 191.191 320.075C198.42 322.21 206.811 327.886 214.389 327.586C216.747 327.492 218.564 326.343 220.094 324.59C224.967 319.006 228.694 311.592 233.076 305.488Q246.72 286.842 262.327 269.805Q264.875 267.029 267.484 264.311Q270.093 261.592 272.762 258.933Q275.432 256.273 278.16 253.674Q280.888 251.075 283.673 248.537Q286.458 246 289.3 243.525Q292.141 241.05 295.037 238.64Q297.933 236.229 300.882 233.884Q303.831 231.538 306.831 229.259Q309.832 226.98 312.883 224.769Q315.934 222.558 319.033 220.415Q322.133 218.272 325.279 216.2Q328.426 214.127 331.618 212.125Q334.81 210.122 338.046 208.192Q341.282 206.262 344.56 204.404Q347.838 202.547 351.157 200.763Q354.476 198.979 357.834 197.27Q361.192 195.56 364.587 193.926Q367.982 192.293 371.413 190.735Q374.844 189.177 378.309 187.697Q381.774 186.216 385.271 184.813Q388.768 183.41 392.296 182.086Q395.823 180.762 399.379 179.516Q402.936 178.271 406.519 177.105Q410.102 175.94 413.71 174.855Q417.319 173.769 420.95 172.765Q424.582 171.761 428.235 170.838Q431.888 169.915 435.561 169.073Q439.234 168.232 442.925 167.473Q446.615 166.714 450.322 166.038Q454.029 165.362 457.75 164.768Q461.471 164.175 465.204 163.665Q468.937 163.155 472.681 162.728C482.731 161.534 492.83 161.152 502.935 160.722Z"/>
</svg>
